<?xml version="1.0" encoding="UTF-8" standalone="no"?>
<!-- Created with Inkscape (http://www.inkscape.org/) -->

<svg
   xmlns:dc="http://purl.org/dc/elements/1.1/"
   xmlns:cc="http://creativecommons.org/ns#"
   xmlns:rdf="http://www.w3.org/1999/02/22-rdf-syntax-ns#"
   xmlns:svg="http://www.w3.org/2000/svg"
   xmlns="http://www.w3.org/2000/svg"
   xmlns:xlink="http://www.w3.org/1999/xlink"
   xmlns:sodipodi="http://sodipodi.sourceforge.net/DTD/sodipodi-0.dtd"
   xmlns:inkscape="http://www.inkscape.org/namespaces/inkscape"
   width="210mm"
   height="297mm"
   viewBox="0 0 744.09448819 1052.3622047"
   id="svg4141"
   version="1.1"
   inkscape:version="0.91 r13725"
   sodipodi:docname="protelis_logos_playground.svg">
  <defs
     id="defs4143">
    <linearGradient
       inkscape:collect="always"
       id="linearGradient5072">
      <stop
         style="stop-color:#7c7cff;stop-opacity:1;"
         offset="0"
         id="stop5074" />
      <stop
         style="stop-color:#ceceff;stop-opacity:1"
         offset="1"
         id="stop5076" />
    </linearGradient>
    <linearGradient
       inkscape:collect="always"
       xlink:href="#linearGradient5072"
       id="linearGradient5078"
       x1="146.61057"
       y1="255.04559"
       x2="421.89334"
       y2="531.37927"
       gradientUnits="userSpaceOnUse" />
    <filter
       inkscape:collect="always"
       style="color-interpolation-filters:sRGB"
       id="filter4233"
       x="-0.024008374"
       width="1.0480167"
       y="-0.023991632"
       height="1.0479833">
      <feGaussianBlur
         inkscape:collect="always"
         stdDeviation="4.8121643"
         id="feGaussianBlur4235" />
    </filter>
    <filter
       inkscape:collect="always"
       style="color-interpolation-filters:sRGB"
       id="filter4245"
       x="-0.012004187"
       width="1.0240084"
       y="-0.011995816"
       height="1.0239916">
      <feGaussianBlur
         inkscape:collect="always"
         stdDeviation="2.4060822"
         id="feGaussianBlur4247" />
    </filter>
  </defs>
  <sodipodi:namedview
     id="base"
     pagecolor="#ffffff"
     bordercolor="#666666"
     borderopacity="1.0"
     inkscape:pageopacity="0.0"
     inkscape:pageshadow="2"
     inkscape:zoom="1.063037"
     inkscape:cx="367.81409"
     inkscape:cy="770.63893"
     inkscape:document-units="px"
     inkscape:current-layer="layer1"
     showgrid="false"
     inkscape:window-width="1280"
     inkscape:window-height="977"
     inkscape:window-x="1918"
     inkscape:window-y="-3"
     inkscape:window-maximized="1"
     inkscape:snap-bbox="true"
     inkscape:bbox-nodes="true"
     inkscape:bbox-paths="true"
     inkscape:snap-bbox-edge-midpoints="true"
     inkscape:snap-bbox-midpoints="true"
     inkscape:snap-object-midpoints="true"
     inkscape:snap-global="true"
     showguides="false"
     inkscape:object-paths="true"
     inkscape:snap-intersection-paths="true"
     inkscape:snap-midpoints="true"
     inkscape:snap-smooth-nodes="true"
     inkscape:object-nodes="true" />
  <metadata
     id="metadata4146">
    <rdf:RDF>
      <cc:Work
         rdf:about="">
        <dc:format>image/svg+xml</dc:format>
        <dc:type
           rdf:resource="http://purl.org/dc/dcmitype/StillImage" />
        <dc:title></dc:title>
      </cc:Work>
    </rdf:RDF>
  </metadata>
  <g
     inkscape:label="Layer 1"
     inkscape:groupmode="layer"
     id="layer1">
    <text
       xml:space="preserve"
       style="font-style:normal;font-weight:normal;font-size:375.00009155px;line-height:125%;font-family:sans-serif;letter-spacing:0px;word-spacing:0px;fill:#ffffff;fill-opacity:1;stroke:#000000;stroke-width:3.54330802;stroke-linecap:butt;stroke-linejoin:miter;stroke-miterlimit:4;stroke-dasharray:none;stroke-opacity:1"
       x="-1113.531"
       y="448.48767"
       id="text4136"
       sodipodi:linespacing="125%"><tspan
         sodipodi:role="line"
         id="tspan4138"
         x="-1113.531"
         y="448.48767"
         style="font-style:normal;font-variant:normal;font-weight:normal;font-stretch:normal;font-size:375.00009155px;font-family:Audiowide;-inkscape-font-specification:Audiowide;fill:#ffffff;fill-opacity:1;stroke:#000000;stroke-width:3.54330802;stroke-miterlimit:4;stroke-dasharray:none;stroke-opacity:1"><tspan
           style="font-size:180px"
           id="tspan4707">rotelis</tspan></tspan></text>
    <text
       xml:space="preserve"
       style="font-style:normal;font-variant:normal;font-weight:normal;font-stretch:normal;font-size:375px;line-height:125%;font-family:Audiowide;-inkscape-font-specification:Audiowide;letter-spacing:0px;word-spacing:0px;fill:#ffffff;fill-opacity:1;stroke:#000000;stroke-width:4;stroke-linecap:butt;stroke-linejoin:miter;stroke-miterlimit:4;stroke-dasharray:none;stroke-opacity:1"
       x="-1317.4187"
       y="450.91623"
       id="text4709"
       sodipodi:linespacing="125%"><tspan
         sodipodi:role="line"
         id="tspan4711"
         x="-1317.4187"
         y="450.91623"
         style="font-size:687.5px">P</tspan></text>
    <circle
       style="fill:#ffffff;fill-opacity:1;stroke:#000000;stroke-width:4;stroke-miterlimit:4;stroke-dasharray:none;stroke-dashoffset:0;stroke-opacity:1"
       id="path4713"
       cx="-594.5614"
       cy="305.20193"
       r="37.142857" />
    <circle
       style="fill:#ff0000;fill-opacity:1;stroke:#000000;stroke-width:4;stroke-miterlimit:4;stroke-dasharray:none;stroke-dashoffset:0;stroke-opacity:1"
       id="path4713-5"
       cx="-708.54926"
       cy="186.5976"
       r="37.142857" />
    <circle
       style="fill:#0000ff;fill-opacity:1;stroke:#000000;stroke-width:4;stroke-miterlimit:4;stroke-dasharray:none;stroke-dashoffset:0;stroke-opacity:1"
       id="path4713-7"
       cx="-539.00818"
       cy="75.673531"
       r="37.142857" />
    <circle
       style="fill:#008000;fill-opacity:1;stroke:#000000;stroke-width:4;stroke-miterlimit:4;stroke-dasharray:none;stroke-dashoffset:0;stroke-opacity:1"
       id="path4713-8"
       cx="-534.5614"
       cy="209.48763"
       r="37.142857" />
    <path
       style="fill:none;fill-rule:evenodd;stroke:#000000;stroke-width:1px;stroke-linecap:butt;stroke-linejoin:miter;stroke-opacity:1"
       d="m -574.83387,273.73182 20.54494,-32.77408"
       id="path4748"
       inkscape:connector-type="polyline"
       inkscape:connector-curvature="0"
       inkscape:connection-start="#path4713"
       inkscape:connection-end="#path4713-8" />
    <path
       style="fill:none;fill-rule:evenodd;stroke:#000000;stroke-width:1px;stroke-linecap:butt;stroke-linejoin:miter;stroke-opacity:1"
       d="m -682.8121,213.3771 62.51355,65.04533"
       id="path4754"
       inkscape:connector-type="polyline"
       inkscape:connector-curvature="0"
       inkscape:connection-start="#path4713-5"
       inkscape:connection-end="#path4713" />
    <path
       style="fill:none;fill-rule:evenodd;stroke:#000000;stroke-width:1px;stroke-linecap:butt;stroke-linejoin:miter;stroke-opacity:1"
       d="m -671.72435,191.44232 100.33804,13.20058"
       id="path4756"
       inkscape:connector-type="polyline"
       inkscape:connector-curvature="0"
       inkscape:connection-start="#path4713-5"
       inkscape:connection-end="#path4713-8" />
    <circle
       style="fill:#ffffff;fill-opacity:1;stroke:#000000;stroke-width:4;stroke-miterlimit:4;stroke-dasharray:none;stroke-dashoffset:0;stroke-opacity:1"
       id="path4713-9-8"
       cx="-670.9046"
       cy="91.794617"
       r="37.142857" />
    <path
       style="fill:none;fill-rule:evenodd;stroke:#000000;stroke-width:1px;stroke-linecap:butt;stroke-linejoin:miter;stroke-opacity:1"
       d="m -694.84176,152.07712 10.22966,-25.76203"
       id="path4894"
       inkscape:connector-type="polyline"
       inkscape:connector-curvature="0"
       inkscape:connection-end="#path4713-9-8"
       inkscape:connection-start="#path4713-5" />
    <path
       style="fill:none;fill-rule:evenodd;stroke:#000000;stroke-width:1px;stroke-linecap:butt;stroke-linejoin:miter;stroke-opacity:1"
       d="m -634.03634,87.288381 58.1599,-7.108614"
       id="path4896"
       inkscape:connector-type="polyline"
       inkscape:connector-curvature="0"
       inkscape:connection-start="#path4713-9-8"
       inkscape:connection-end="#path4713-7" />
    <path
       style="fill:none;fill-rule:evenodd;stroke:#000000;stroke-width:1px;stroke-linecap:butt;stroke-linejoin:miter;stroke-opacity:1"
       d="m -642.78818,116.06503 80.11036,69.15218"
       id="path4898"
       inkscape:connector-type="polyline"
       inkscape:connector-curvature="0"
       inkscape:connection-start="#path4713-9-8"
       inkscape:connection-end="#path4713-8" />
    <text
       xml:space="preserve"
       style="font-style:normal;font-weight:normal;font-size:40px;line-height:125%;font-family:sans-serif;letter-spacing:0px;word-spacing:0px;fill:#000000;fill-opacity:1;stroke:none;stroke-width:1px;stroke-linecap:butt;stroke-linejoin:miter;stroke-opacity:1"
       x="-1272.7922"
       y="482.63617"
       id="text4902"
       sodipodi:linespacing="125%"><tspan
         sodipodi:role="line"
         id="tspan4904"
         x="-1272.7922"
         y="482.63617"
         style="font-style:normal;font-variant:normal;font-weight:normal;font-stretch:normal;font-size:43.75px;font-family:Audiowide;-inkscape-font-specification:Audiowide">practical aggregate programming</tspan></text>
    <path
       style="fill:none;fill-rule:evenodd;stroke:#000000;stroke-width:1px;stroke-linecap:butt;stroke-linejoin:miter;stroke-opacity:1"
       d="m -537.77458,112.79532 1.97958,59.57052"
       id="path5121"
       inkscape:connector-type="polyline"
       inkscape:connector-curvature="0"
       inkscape:connection-start="#path4713-7"
       inkscape:connection-end="#path4713-8" />
    <g
       inkscape:export-xdpi="51.299999"
       inkscape:export-ydpi="51.299999"
       id="g4268"
       transform="translate(255.87067,0)">
      <rect
         rx="27.323376"
         ry="31.017941"
         y="-16.897705"
         x="-124.28186"
         height="543.8866"
         width="541.78485"
         id="rect4924"
         style="fill:url(#linearGradient5078);fill-opacity:1;stroke:#000000;stroke-width:8.78070164;stroke-linecap:butt;stroke-linejoin:miter;stroke-miterlimit:4.69999981;stroke-dasharray:none;stroke-dashoffset:0;stroke-opacity:1" />
      <path
         inkscape:connector-curvature="0"
         id="path4178"
         d="m 228.57143,288.79078 0,89.28571"
         style="fill:none;fill-rule:evenodd;stroke:#000000;stroke-width:1px;stroke-linecap:butt;stroke-linejoin:miter;stroke-opacity:1" />
      <g
         style="filter:url(#filter4233)"
         id="g4213">
        <g
           id="g4215"
           style="font-style:normal;font-variant:normal;font-weight:normal;font-stretch:normal;font-size:375px;line-height:125%;font-family:Audiowide;-inkscape-font-specification:Audiowide;letter-spacing:0px;word-spacing:0px;fill:#ffffff;fill-opacity:1;stroke:#000000;stroke-width:5;stroke-linecap:butt;stroke-linejoin:miter;stroke-miterlimit:4;stroke-dasharray:none;stroke-opacity:1">
          <path
             sodipodi:nodetypes="sscsccsccccscscsccssssccscccsscccccss"
             inkscape:connector-curvature="0"
             id="path4217"
             style="font-size:687.5px;stroke-width:5;stroke-miterlimit:4;stroke-dasharray:none"
             d="m 387.13486,215.76947 c 0,19.91781 -2.46175,37.70955 -7.38526,53.37524 -4.9235,15.66569 -11.63737,29.54102 -20.1416,41.62598 -8.28043,11.86117 -17.90364,22.04387 -28.86963,30.5481 -10.96598,8.50423 -22.49145,15.44189 -34.57641,20.81298 -11.86117,5.3711 -23.94613,9.28752 -36.25489,11.74927 -12.08496,2.46175 -23.49853,3.69263 -34.24072,3.69263 l 0,0 0,-87.28027 0,0 c 11.18978,-0.89519 21.26058,-3.13314 30.2124,-6.71387 9.17562,-3.80453 17.00847,-8.83993 23.49854,-15.1062 6.49007,-6.26628 11.52547,-13.76343 15.1062,-22.49146 3.58073,-8.95182 5.37109,-19.02262 5.37109,-30.2124 l 0,-39.61182 c -1.11897,-10.96598 -3.46883,-21.03678 -7.04956,-30.2124 -3.58073,-9.17562 -8.50423,-17.00846 -14.7705,-23.49853 -6.04249,-6.49007 -13.42774,-11.52547 -22.15577,-15.1062 -8.72803,-3.80453 -18.79883,-5.70679 -30.2124,-5.70679 l -196.716307,0 c -11.63737,0 -20.4772952,3.02124 -26.5197757,9.06372 -6.0424805,6.04248 -9.0637207,14.77051 -9.0637207,26.18408 l 0,358.8562 -87.2802736,0 0,-358.8562 c 0,-22.37956 4.02832,-41.402183 12.084961,-57.06787 8.280436,-15.66569 18.463135,-28.31014 30.548096,-37.93335 12.308757,-9.623209 25.624593,-16.560872 39.94751,-20.812988 14.3229167,-4.475911 27.526855,-6.713867 39.611816,-6.713867 l 197.387694,0 c 19.69401,0 37.37386,2.573649 53.03955,7.720947 15.66569,4.923503 29.42912,11.63737 41.29029,20.141601 12.08496,8.280437 22.26766,17.903646 30.54809,28.869629 8.50423,10.965983 15.4419,22.491456 20.81299,34.576418 5.59489,11.86117 9.62321,23.94613 12.08496,36.25488 2.46175,12.08496 3.69263,23.49853 3.69263,34.24072 z" />
        </g>
        <path
           id="path4219"
           d="m 80.699219,159.53711 c -19.586858,0 -35.355469,12.61372 -35.355469,28.2832 l 0,103.86328 -29.171875,0 0,83.5 29.171875,0 0,89.72071 c 0,7.8914 4.00232,15.00424 10.474609,20.125 5.015019,5.07958 11.46526,8.1289 18.523438,8.1289 l 4.837891,0 c 0.50447,0.0169 1.009675,0.0293 1.519531,0.0293 l 10.951172,0 c 0.509856,0 1.01506,-0.0124 1.519531,-0.0293 l 264.966798,0 c 16.049,0 28.96875,-15.75722 28.96875,-35.33008 l 0,-10.9414 c 0,-19.57286 -12.91975,-35.33008 -28.96875,-35.33008 l -231.13086,0 0,-36.37305 77.17187,0 0,-83.5 -77.17187,0 0,-103.86328 c 0,-15.66948 -15.76861,-28.2832 -35.355469,-28.2832 l -10.951172,0 z"
           style="opacity:1;fill:#ffffff;fill-opacity:1;stroke:#000000;stroke-width:5;stroke-linejoin:round;stroke-miterlimit:4;stroke-dasharray:none;stroke-opacity:1"
           inkscape:connector-curvature="0" />
      </g>
      <g
         style="filter:url(#filter4245)"
         id="g4237">
        <g
           id="g4239"
           style="font-style:normal;font-variant:normal;font-weight:normal;font-stretch:normal;font-size:375px;line-height:125%;font-family:Audiowide;-inkscape-font-specification:Audiowide;letter-spacing:0px;word-spacing:0px;fill:#ffffff;fill-opacity:1;stroke:#000000;stroke-width:5;stroke-linecap:butt;stroke-linejoin:miter;stroke-miterlimit:4;stroke-dasharray:none;stroke-opacity:1">
          <path
             sodipodi:nodetypes="sscsccsccccscscsccssssccscccsscccccss"
             inkscape:connector-curvature="0"
             id="path4241"
             style="font-size:687.5px;stroke-width:5;stroke-miterlimit:4;stroke-dasharray:none"
             d="m 387.13486,215.76947 c 0,19.91781 -2.46175,37.70955 -7.38526,53.37524 -4.9235,15.66569 -11.63737,29.54102 -20.1416,41.62598 -8.28043,11.86117 -17.90364,22.04387 -28.86963,30.5481 -10.96598,8.50423 -22.49145,15.44189 -34.57641,20.81298 -11.86117,5.3711 -23.94613,9.28752 -36.25489,11.74927 -12.08496,2.46175 -23.49853,3.69263 -34.24072,3.69263 l 0,0 0,-87.28027 0,0 c 11.18978,-0.89519 21.26058,-3.13314 30.2124,-6.71387 9.17562,-3.80453 17.00847,-8.83993 23.49854,-15.1062 6.49007,-6.26628 11.52547,-13.76343 15.1062,-22.49146 3.58073,-8.95182 5.37109,-19.02262 5.37109,-30.2124 l 0,-39.61182 c -1.11897,-10.96598 -3.46883,-21.03678 -7.04956,-30.2124 -3.58073,-9.17562 -8.50423,-17.00846 -14.7705,-23.49853 -6.04249,-6.49007 -13.42774,-11.52547 -22.15577,-15.1062 -8.72803,-3.80453 -18.79883,-5.70679 -30.2124,-5.70679 l -196.716307,0 c -11.63737,0 -20.4772952,3.02124 -26.5197757,9.06372 -6.0424805,6.04248 -9.0637207,14.77051 -9.0637207,26.18408 l 0,358.8562 -87.2802736,0 0,-358.8562 c 0,-22.37956 4.02832,-41.402183 12.084961,-57.06787 8.280436,-15.66569 18.463135,-28.31014 30.548096,-37.93335 12.308757,-9.623209 25.624593,-16.560872 39.94751,-20.812988 14.3229167,-4.475911 27.526855,-6.713867 39.611816,-6.713867 l 197.387694,0 c 19.69401,0 37.37386,2.573649 53.03955,7.720947 15.66569,4.923503 29.42912,11.63737 41.29029,20.141601 12.08496,8.280437 22.26766,17.903646 30.54809,28.869629 8.50423,10.965983 15.4419,22.491456 20.81299,34.576418 5.59489,11.86117 9.62321,23.94613 12.08496,36.25488 2.46175,12.08496 3.69263,23.49853 3.69263,34.24072 z" />
        </g>
        <path
           id="path4243"
           d="m 80.699219,159.53711 c -19.586858,0 -35.355469,12.61372 -35.355469,28.2832 l 0,103.86328 -29.171875,0 0,83.5 29.171875,0 0,89.72071 c 0,7.8914 4.00232,15.00424 10.474609,20.125 5.015019,5.07958 11.46526,8.1289 18.523438,8.1289 l 4.837891,0 c 0.50447,0.0169 1.009675,0.0293 1.519531,0.0293 l 10.951172,0 c 0.509856,0 1.01506,-0.0124 1.519531,-0.0293 l 264.966798,0 c 16.049,0 28.96875,-15.75722 28.96875,-35.33008 l 0,-10.9414 c 0,-19.57286 -12.91975,-35.33008 -28.96875,-35.33008 l -231.13086,0 0,-36.37305 77.17187,0 0,-83.5 -77.17187,0 0,-103.86328 c 0,-15.66948 -15.76861,-28.2832 -35.355469,-28.2832 l -10.951172,0 z"
           style="opacity:1;fill:#ffffff;fill-opacity:1;stroke:#000000;stroke-width:5;stroke-linejoin:round;stroke-miterlimit:4;stroke-dasharray:none;stroke-opacity:1"
           inkscape:connector-curvature="0" />
      </g>
      <g
         id="g4208">
        <g
           style="font-style:normal;font-variant:normal;font-weight:normal;font-stretch:normal;font-size:375px;line-height:125%;font-family:Audiowide;-inkscape-font-specification:Audiowide;letter-spacing:0px;word-spacing:0px;fill:#ffffff;fill-opacity:1;stroke:#000000;stroke-width:5;stroke-linecap:butt;stroke-linejoin:miter;stroke-miterlimit:4;stroke-dasharray:none;stroke-opacity:1"
           id="text4709-0">
          <path
             d="m 387.13486,215.76947 c 0,19.91781 -2.46175,37.70955 -7.38526,53.37524 -4.9235,15.66569 -11.63737,29.54102 -20.1416,41.62598 -8.28043,11.86117 -17.90364,22.04387 -28.86963,30.5481 -10.96598,8.50423 -22.49145,15.44189 -34.57641,20.81298 -11.86117,5.3711 -23.94613,9.28752 -36.25489,11.74927 -12.08496,2.46175 -23.49853,3.69263 -34.24072,3.69263 l 0,0 0,-87.28027 0,0 c 11.18978,-0.89519 21.26058,-3.13314 30.2124,-6.71387 9.17562,-3.80453 17.00847,-8.83993 23.49854,-15.1062 6.49007,-6.26628 11.52547,-13.76343 15.1062,-22.49146 3.58073,-8.95182 5.37109,-19.02262 5.37109,-30.2124 l 0,-39.61182 c -1.11897,-10.96598 -3.46883,-21.03678 -7.04956,-30.2124 -3.58073,-9.17562 -8.50423,-17.00846 -14.7705,-23.49853 -6.04249,-6.49007 -13.42774,-11.52547 -22.15577,-15.1062 -8.72803,-3.80453 -18.79883,-5.70679 -30.2124,-5.70679 l -196.716307,0 c -11.63737,0 -20.4772952,3.02124 -26.5197757,9.06372 -6.0424805,6.04248 -9.0637207,14.77051 -9.0637207,26.18408 l 0,358.8562 -87.2802736,0 0,-358.8562 c 0,-22.37956 4.02832,-41.402183 12.084961,-57.06787 8.280436,-15.66569 18.463135,-28.31014 30.548096,-37.93335 12.308757,-9.623209 25.624593,-16.560872 39.94751,-20.812988 14.3229167,-4.475911 27.526855,-6.713867 39.611816,-6.713867 l 197.387694,0 c 19.69401,0 37.37386,2.573649 53.03955,7.720947 15.66569,4.923503 29.42912,11.63737 41.29029,20.141601 12.08496,8.280437 22.26766,17.903646 30.54809,28.869629 8.50423,10.965983 15.4419,22.491456 20.81299,34.576418 5.59489,11.86117 9.62321,23.94613 12.08496,36.25488 2.46175,12.08496 3.69263,23.49853 3.69263,34.24072 z"
             style="font-size:687.5px;stroke-width:5;stroke-miterlimit:4;stroke-dasharray:none"
             id="path4176"
             inkscape:connector-curvature="0"
             sodipodi:nodetypes="sscsccsccccscscsccssssccscccsscccccss" />
        </g>
        <path
           style="opacity:1;fill:#ffffff;fill-opacity:1;stroke:#000000;stroke-width:5;stroke-linejoin:round;stroke-miterlimit:4;stroke-dasharray:none;stroke-opacity:1"
           d="m 80.699219,159.53711 c -19.586858,0 -35.355469,12.61372 -35.355469,28.2832 l 0,103.86328 -29.171875,0 0,83.5 29.171875,0 0,89.72071 c 0,7.8914 4.00232,15.00424 10.474609,20.125 5.015019,5.07958 11.46526,8.1289 18.523438,8.1289 l 4.837891,0 c 0.50447,0.0169 1.009675,0.0293 1.519531,0.0293 l 10.951172,0 c 0.509856,0 1.01506,-0.0124 1.519531,-0.0293 l 264.966798,0 c 16.049,0 28.96875,-15.75722 28.96875,-35.33008 l 0,-10.9414 c 0,-19.57286 -12.91975,-35.33008 -28.96875,-35.33008 l -231.13086,0 0,-36.37305 77.17187,0 0,-83.5 -77.17187,0 0,-103.86328 c 0,-15.66948 -15.76861,-28.2832 -35.355469,-28.2832 l -10.951172,0 z"
           id="rect4188"
           inkscape:connector-curvature="0" />
      </g>
    </g>
  </g>
</svg>
